<svg width="134" height="40" viewBox="0 0 134 40" fill="none" xmlns="http://www.w3.org/2000/svg">
<g clip-path="url(#clip0_93_106)">
<path fill-rule="evenodd" clip-rule="evenodd" d="M83.2462 31.2812C75.5237 36.9666 64.3305 40 54.6933 40C41.1804 40 29.0153 35.0079 19.8119 26.7052C19.0889 26.0523 19.7367 25.1625 20.6044 25.671C30.5367 31.443 42.8174 34.9155 55.5031 34.9155C64.0586 34.9155 73.4702 33.1475 82.124 29.4786C83.4313 28.9239 84.5246 30.3337 83.2462 31.2812Z" fill="#FF9900"/>
<path fill-rule="evenodd" clip-rule="evenodd" d="M86.4569 27.6123C85.4735 26.3527 79.9318 27.0172 77.4444 27.3119C76.6866 27.4043 76.5709 26.7456 77.2535 26.2719C81.6672 23.1692 88.9096 24.0647 89.7541 25.1047C90.5987 26.1505 89.5343 33.4017 85.3867 36.8626C84.7504 37.3942 84.143 37.1111 84.4265 36.4062C85.3578 34.0835 87.446 28.8777 86.4569 27.6123Z" fill="#FF9900"/>
<path fill-rule="evenodd" clip-rule="evenodd" d="M77.6177 4.36807V1.35204C77.6177 0.895594 77.9648 0.589369 78.3813 0.589369H91.9C92.3338 0.589369 92.6809 0.901372 92.6809 1.35204V3.93474C92.6751 4.36807 92.3107 4.9343 91.6628 5.82987L84.6576 15.8197C87.2607 15.7562 90.0084 16.1433 92.3686 17.4722C92.9007 17.7727 93.0454 18.2118 93.0858 18.6451V21.8634C93.0858 22.3025 92.5999 22.8167 92.0909 22.5509C87.9317 20.3727 82.4074 20.1358 77.8086 22.574C77.3401 22.8283 76.8484 22.3198 76.8484 21.8807V18.8242C76.8484 18.3331 76.8542 17.4953 77.3459 16.75L85.4617 5.12497H78.3987C77.9648 5.12497 77.6177 4.81875 77.6177 4.36807Z" fill="black"/>
<path fill-rule="evenodd" clip-rule="evenodd" d="M28.3038 23.1865H24.1909C23.7976 23.1576 23.4852 22.8629 23.4563 22.4874V1.40405C23.4563 0.982265 23.8092 0.647148 24.2488 0.647148H28.084C28.4831 0.66447 28.8013 0.970706 28.8302 1.35204V4.10807H28.9054C29.9062 1.44449 31.7862 0.202253 34.3198 0.202253C36.894 0.202253 38.5021 1.44449 39.6591 4.10807C40.654 1.44449 42.9158 0.202253 45.3396 0.202253C47.0634 0.202253 48.9492 0.912927 50.1003 2.50761C51.4019 4.28141 51.1358 6.85832 51.1358 9.11746L51.13 22.4238C51.13 22.8456 50.7771 23.1865 50.3375 23.1865H46.2304C45.8197 23.1576 45.49 22.8283 45.49 22.4238V11.2495C45.49 10.3597 45.5709 8.141 45.3743 7.29744C45.0677 5.88187 44.1479 5.4832 42.9563 5.4832C41.9613 5.4832 40.9201 6.14765 40.4978 7.21077C40.0755 8.27389 40.116 10.0535 40.116 11.2495V22.4238C40.116 22.8456 39.7632 23.1865 39.3235 23.1865H35.2165C34.8 23.1576 34.476 22.8283 34.476 22.4238L34.4702 11.2495C34.4702 8.8979 34.8578 5.43697 31.9366 5.43697C28.9806 5.43697 29.0963 8.81123 29.0963 11.2495V22.4238C29.0963 22.8456 28.7435 23.1865 28.3038 23.1865" fill="black"/>
<path fill-rule="evenodd" clip-rule="evenodd" d="M104.32 0.202253C110.422 0.202253 113.725 5.43697 113.725 12.093C113.725 18.5238 110.075 23.6256 104.32 23.6256C98.3267 23.6256 95.0642 18.3909 95.0642 11.8677C95.0642 5.30408 98.3672 0.202253 104.32 0.202253ZM104.354 4.50674C101.323 4.50674 101.132 8.63212 101.132 11.2033C101.132 13.7802 101.092 19.2807 104.32 19.2807C107.507 19.2807 107.657 14.8433 107.657 12.1393C107.657 10.3597 107.582 8.23345 107.044 6.54632C106.581 5.07875 105.662 4.50674 104.354 4.50674Z" fill="black"/>
<path fill-rule="evenodd" clip-rule="evenodd" d="M121.639 23.1865H117.543C117.133 23.1576 116.803 22.8283 116.803 22.4238L116.797 1.33471C116.832 0.947594 117.173 0.647148 117.59 0.647148H121.402C121.76 0.66447 122.055 0.907151 122.136 1.23649V4.46052H122.212C123.363 1.57738 124.977 0.202253 127.817 0.202253C129.662 0.202253 131.461 0.866706 132.618 2.68672C133.694 4.37385 133.694 7.21077 133.694 9.25034V22.522C133.648 22.8918 133.306 23.1865 132.902 23.1865H128.777C128.401 23.1576 128.089 22.8803 128.048 22.522V11.0704C128.048 8.76501 128.314 5.39075 125.474 5.39075C124.473 5.39075 123.554 6.06098 123.097 7.07788C122.518 8.36634 122.443 9.64902 122.443 11.0704V22.4238C122.437 22.8456 122.078 23.1865 121.639 23.1865" fill="black"/>
<path fill-rule="evenodd" clip-rule="evenodd" d="M66.841 13.1157C66.841 14.7162 66.8815 16.0509 66.0716 17.4722C65.418 18.6278 64.3767 19.3385 63.2256 19.3385C61.6464 19.3385 60.7208 18.1367 60.7208 16.3629C60.7208 12.8615 63.8619 12.2259 66.841 12.2259V13.1157ZM70.9886 23.1287C70.7167 23.3714 70.3233 23.3887 70.0167 23.2269C68.6516 22.0945 68.4028 21.5687 67.6566 20.4882C65.4006 22.7878 63.7983 23.4754 60.877 23.4754C57.412 23.4754 54.7222 21.3434 54.7222 17.0735C54.7222 13.7397 56.527 11.469 59.1069 10.3597C61.3398 9.37746 64.4577 9.20413 66.841 8.93257V8.40101C66.841 7.42455 66.9162 6.26898 66.3377 5.42542C65.8402 4.66852 64.88 4.35652 64.0296 4.35652C62.462 4.35652 61.0679 5.15964 60.7266 6.82365C60.6572 7.19344 60.3853 7.55744 60.0093 7.57478L56.0237 7.14721C55.6882 7.0721 55.3122 6.80054 55.4105 6.28632C56.3245 1.45605 60.6977 2.86102e-05 64.6081 2.86102e-05C66.6096 2.86102e-05 69.2242 0.531591 70.8034 2.04538C72.8049 3.91162 72.614 6.40187 72.614 9.11168V15.5135C72.614 17.4375 73.4123 18.2811 74.1643 19.3211C74.4246 19.6909 74.4825 20.1358 74.1469 20.4131C73.3082 21.1122 71.8157 22.4123 70.9943 23.1403L70.9886 23.1287Z" fill="black"/>
<path fill-rule="evenodd" clip-rule="evenodd" d="M12.9225 13.1159C12.9225 14.7164 12.963 16.051 12.1532 17.4724C11.4995 18.628 10.464 19.3386 9.30712 19.3386C7.72791 19.3386 6.80816 18.1368 6.80816 16.3631C6.80816 12.8617 9.94921 12.2261 12.9225 12.2261V13.1159ZM17.0701 23.1289C16.7982 23.3716 16.4049 23.3889 16.0983 23.2271C14.7331 22.0947 14.4901 21.5689 13.7381 20.4884C11.4821 22.788 9.88558 23.4756 6.95856 23.4756C3.49935 23.4756 0.803711 21.3435 0.803711 17.0737C0.803711 13.7399 2.6143 11.4692 5.18846 10.3599C7.42133 9.37765 10.5392 9.20431 12.9225 8.93276V8.4012C12.9225 7.42474 12.9977 6.26917 12.425 5.42561C11.9218 4.66871 10.9615 4.35671 10.117 4.35671C8.54933 4.35671 7.14945 5.15983 6.80816 6.82384C6.73874 7.19363 6.46686 7.55763 6.09665 7.57496L2.10525 7.1474C1.76974 7.07229 1.39953 6.80073 1.49208 6.28651C2.41184 1.45624 6.77923 0.000216961 10.6896 0.000216961C12.6911 0.000216961 15.3058 0.531779 16.885 2.04557C18.8865 3.91181 18.6956 6.40206 18.6956 9.11187V15.5137C18.6956 17.4377 19.4939 18.2813 20.2459 19.3213C20.512 19.6911 20.5698 20.136 20.2343 20.4133C19.3955 21.1124 17.9031 22.4125 17.0817 23.1405L17.0701 23.1289" fill="black"/>
</g>
<defs>
<clipPath id="clip0_93_106">
<rect width="132.89" height="40" fill="white" transform="translate(0.803711)"/>
</clipPath>
</defs>
</svg>
