<svg width="142" height="32" viewBox="0 0 142 32" fill="none" xmlns="http://www.w3.org/2000/svg">
<g clip-path="url(#clip0_64_258)">
<path d="M25.0001 12.4824C25.0039 14.5643 24.4881 16.6142 23.4994 18.4463C22.5106 20.2784 21.0802 21.8347 19.3378 22.9742C17.5955 24.1137 15.5963 24.8003 13.5215 24.9718C11.4467 25.1432 9.36198 24.7941 7.45622 23.9561V32.0175C6.47287 32.0175 5.49917 31.8237 4.59078 31.4471C3.68239 31.0706 2.85715 30.5186 2.16222 29.8229C1.4673 29.1272 0.916342 28.3012 0.54083 27.3924C0.165317 26.4836 -0.0274145 25.5097 -0.0262617 24.5263V14.5614C-0.0262617 14.0658 0.170623 13.5906 0.52102 13.2402C0.871417 12.8898 1.34663 12.693 1.84216 12.693H5.90357C6.29517 12.6982 6.67519 12.8264 6.99 13.0593C7.3048 13.2923 7.53848 13.6183 7.65796 13.9912C7.93973 14.9269 8.47643 15.7656 9.20793 16.4135C9.93943 17.0614 10.8368 17.4929 11.7997 17.6596C12.7625 17.8263 13.7528 17.7216 14.6595 17.3573C15.5663 16.9931 16.3537 16.3836 16.9336 15.5971C17.5135 14.8106 17.863 13.8783 17.943 12.9044C18.023 11.9305 17.8304 10.9536 17.3865 10.083C16.9427 9.21245 16.2652 8.48265 15.4301 7.97531C14.5949 7.46798 13.6352 7.20315 12.658 7.2105H6.39485C5.54743 7.21165 4.70804 7.04577 3.9248 6.72227C3.14156 6.39878 2.42979 5.92407 1.83017 5.32526C1.23055 4.72646 0.75483 4.01531 0.430271 3.23251C0.105712 2.4497 -0.0613309 1.61057 -0.0613302 0.763154C-0.0749342 0.50895 -0.0749342 0.254204 -0.0613302 0H12.7545C16.0246 0.0597989 19.1403 1.40155 21.4307 3.73626C23.7211 6.07097 25.0029 9.21183 25.0001 12.4824Z" fill="#5241C6"/>
</g>
<path d="M39.112 25V8.2H46.36C47.416 8.2 48.352 8.44 49.168 8.92C50 9.4 50.656 10.056 51.136 10.888C51.632 11.72 51.88 12.656 51.88 13.696C51.88 14.784 51.632 15.76 51.136 16.624C50.656 17.472 50 18.144 49.168 18.64C48.352 19.136 47.416 19.384 46.36 19.384H43.192V25H39.112ZM43.12 15.808H45.784C46.136 15.808 46.456 15.72 46.744 15.544C47.032 15.368 47.264 15.128 47.44 14.824C47.616 14.52 47.704 14.168 47.704 13.768C47.704 13.352 47.616 13 47.44 12.712C47.264 12.424 47.032 12.2 46.744 12.04C46.456 11.88 46.136 11.8 45.784 11.8H43.12V15.808ZM59.0643 25.216C57.9923 25.216 57.0323 24.936 56.1842 24.376C55.3523 23.8 54.6883 23.016 54.1923 22.024C53.6963 21.016 53.4482 19.88 53.4482 18.616C53.4482 17.32 53.6963 16.176 54.1923 15.184C54.6883 14.192 55.3683 13.416 56.2323 12.856C57.0963 12.28 58.0803 11.992 59.1843 11.992C59.7923 11.992 60.3443 12.08 60.8403 12.256C61.3523 12.432 61.8003 12.68 62.1843 13C62.5683 13.304 62.8963 13.664 63.1683 14.08C63.4403 14.48 63.6403 14.912 63.7683 15.376L62.9763 15.28V12.256H66.7923V25H62.9043V21.928L63.7683 21.904C63.6403 22.352 63.4323 22.776 63.1443 23.176C62.8563 23.576 62.5043 23.928 62.0883 24.232C61.6723 24.536 61.2083 24.776 60.6963 24.952C60.1843 25.128 59.6403 25.216 59.0643 25.216ZM60.1203 21.976C60.7123 21.976 61.2243 21.84 61.6563 21.568C62.0883 21.296 62.4243 20.912 62.6643 20.416C62.9043 19.904 63.0243 19.304 63.0243 18.616C63.0243 17.928 62.9043 17.336 62.6643 16.84C62.4243 16.328 62.0883 15.936 61.6563 15.664C61.2243 15.376 60.7123 15.232 60.1203 15.232C59.5443 15.232 59.0403 15.376 58.6083 15.664C58.1923 15.936 57.8643 16.328 57.6243 16.84C57.3843 17.336 57.2643 17.928 57.2643 18.616C57.2643 19.304 57.3843 19.904 57.6243 20.416C57.8643 20.912 58.1923 21.296 58.6083 21.568C59.0403 21.84 59.5443 21.976 60.1203 21.976ZM70.1806 25V12.256H73.8286L73.9966 16.408L73.2766 15.616C73.4686 14.928 73.7806 14.312 74.2126 13.768C74.6606 13.224 75.1806 12.792 75.7726 12.472C76.3646 12.152 76.9966 11.992 77.6686 11.992C77.9566 11.992 78.2206 12.016 78.4606 12.064C78.7166 12.112 78.9486 12.168 79.1566 12.232L78.1006 16.48C77.9246 16.368 77.6846 16.28 77.3806 16.216C77.0926 16.136 76.7886 16.096 76.4686 16.096C76.1166 16.096 75.7886 16.16 75.4846 16.288C75.1806 16.4 74.9246 16.568 74.7166 16.792C74.5086 17.016 74.3406 17.28 74.2126 17.584C74.1006 17.888 74.0446 18.232 74.0446 18.616V25H70.1806ZM85.2674 25.216C84.1954 25.216 83.2354 24.936 82.3874 24.376C81.5554 23.8 80.8914 23.016 80.3954 22.024C79.8994 21.016 79.6514 19.88 79.6514 18.616C79.6514 17.32 79.8994 16.176 80.3954 15.184C80.8914 14.192 81.5714 13.416 82.4354 12.856C83.2994 12.28 84.2834 11.992 85.3874 11.992C85.9954 11.992 86.5474 12.08 87.0434 12.256C87.5554 12.432 88.0034 12.68 88.3874 13C88.7714 13.304 89.0994 13.664 89.3714 14.08C89.6434 14.48 89.8434 14.912 89.9714 15.376L89.1794 15.28V12.256H92.9954V25H89.1074V21.928L89.9714 21.904C89.8434 22.352 89.6354 22.776 89.3474 23.176C89.0594 23.576 88.7074 23.928 88.2914 24.232C87.8754 24.536 87.4114 24.776 86.8994 24.952C86.3874 25.128 85.8434 25.216 85.2674 25.216ZM86.3234 21.976C86.9154 21.976 87.4274 21.84 87.8594 21.568C88.2914 21.296 88.6274 20.912 88.8674 20.416C89.1074 19.904 89.2274 19.304 89.2274 18.616C89.2274 17.928 89.1074 17.336 88.8674 16.84C88.6274 16.328 88.2914 15.936 87.8594 15.664C87.4274 15.376 86.9154 15.232 86.3234 15.232C85.7474 15.232 85.2434 15.376 84.8114 15.664C84.3954 15.936 84.0674 16.328 83.8274 16.84C83.5874 17.336 83.4674 17.928 83.4674 18.616C83.4674 19.304 83.5874 19.904 83.8274 20.416C84.0674 20.912 84.3954 21.296 84.8114 21.568C85.2434 21.84 85.7474 21.976 86.3234 21.976ZM102.216 30.52C101.176 30.52 100.136 30.368 99.0957 30.064C98.0717 29.76 97.2397 29.368 96.5997 28.888L97.9437 26.2C98.2797 26.424 98.6477 26.616 99.0477 26.776C99.4637 26.952 99.8957 27.088 100.344 27.184C100.792 27.28 101.248 27.328 101.712 27.328C102.528 27.328 103.192 27.208 103.704 26.968C104.216 26.728 104.6 26.36 104.856 25.864C105.112 25.384 105.24 24.776 105.24 24.04V21.904L105.984 22.024C105.872 22.552 105.592 23.032 105.144 23.464C104.712 23.896 104.176 24.248 103.536 24.52C102.896 24.776 102.216 24.904 101.496 24.904C100.344 24.904 99.3117 24.64 98.3997 24.112C97.5037 23.568 96.7917 22.824 96.2637 21.88C95.7517 20.92 95.4957 19.816 95.4957 18.568C95.4957 17.288 95.7517 16.16 96.2637 15.184C96.7757 14.192 97.4797 13.416 98.3757 12.856C99.2717 12.28 100.28 11.992 101.4 11.992C101.88 11.992 102.336 12.048 102.768 12.16C103.216 12.272 103.624 12.424 103.992 12.616C104.376 12.792 104.712 13.008 105 13.264C105.304 13.504 105.544 13.768 105.72 14.056C105.912 14.344 106.04 14.64 106.104 14.944L105.312 15.136L105.456 12.256H109.104V23.968C109.104 25.008 108.944 25.928 108.624 26.728C108.32 27.544 107.864 28.232 107.256 28.792C106.664 29.368 105.944 29.8 105.096 30.088C104.248 30.376 103.288 30.52 102.216 30.52ZM102.312 21.928C102.936 21.928 103.472 21.792 103.92 21.52C104.384 21.232 104.736 20.84 104.976 20.344C105.232 19.848 105.36 19.264 105.36 18.592C105.36 17.92 105.232 17.336 104.976 16.84C104.736 16.328 104.384 15.936 103.92 15.664C103.472 15.376 102.936 15.232 102.312 15.232C101.704 15.232 101.176 15.376 100.728 15.664C100.28 15.936 99.9277 16.328 99.6717 16.84C99.4317 17.336 99.3117 17.92 99.3117 18.592C99.3117 19.264 99.4317 19.848 99.6717 20.344C99.9277 20.84 100.28 21.232 100.728 21.52C101.176 21.792 101.704 21.928 102.312 21.928ZM118.438 25.24C117.11 25.24 115.926 24.952 114.886 24.376C113.862 23.8 113.046 23.016 112.438 22.024C111.846 21.032 111.55 19.896 111.55 18.616C111.55 17.336 111.846 16.2 112.438 15.208C113.046 14.216 113.862 13.432 114.886 12.856C115.926 12.28 117.11 11.992 118.438 11.992C119.766 11.992 120.942 12.28 121.966 12.856C123.006 13.432 123.822 14.216 124.414 15.208C125.006 16.2 125.302 17.336 125.302 18.616C125.302 19.896 125.006 21.032 124.414 22.024C123.822 23.016 123.006 23.8 121.966 24.376C120.942 24.952 119.766 25.24 118.438 25.24ZM118.438 21.928C119.014 21.928 119.526 21.784 119.974 21.496C120.422 21.208 120.774 20.816 121.03 20.32C121.286 19.824 121.406 19.256 121.39 18.616C121.406 17.976 121.286 17.408 121.03 16.912C120.774 16.4 120.422 16 119.974 15.712C119.526 15.424 119.014 15.28 118.438 15.28C117.862 15.28 117.342 15.424 116.878 15.712C116.43 16 116.078 16.4 115.822 16.912C115.566 17.408 115.446 17.976 115.462 18.616C115.446 19.256 115.566 19.824 115.822 20.32C116.078 20.816 116.43 21.208 116.878 21.496C117.342 21.784 117.862 21.928 118.438 21.928ZM127.813 25V12.256H131.461L131.581 14.848L130.813 15.136C130.989 14.56 131.301 14.04 131.749 13.576C132.213 13.096 132.765 12.712 133.405 12.424C134.045 12.136 134.717 11.992 135.421 11.992C136.381 11.992 137.189 12.192 137.845 12.592C138.501 12.976 138.997 13.56 139.333 14.344C139.669 15.112 139.837 16.056 139.837 17.176V25H135.973V17.488C135.973 16.976 135.901 16.552 135.757 16.216C135.613 15.88 135.389 15.632 135.085 15.472C134.797 15.296 134.437 15.216 134.005 15.232C133.669 15.232 133.357 15.288 133.069 15.4C132.781 15.496 132.533 15.648 132.325 15.856C132.117 16.048 131.949 16.272 131.821 16.528C131.709 16.784 131.653 17.064 131.653 17.368V25H129.757C129.309 25 128.925 25 128.605 25C128.285 25 128.021 25 127.813 25Z" fill="#5241C6"/>
<defs>
<clipPath id="clip0_64_258">
<rect width="25" height="32" fill="white"/>
</clipPath>
</defs>
</svg>
