<svg width="155" height="40" viewBox="0 0 155 40" fill="none" xmlns="http://www.w3.org/2000/svg">
<path d="M134.509 9.34367L131.226 29.9208C131.213 29.9964 131.218 30.0737 131.239 30.1474C131.259 30.2211 131.296 30.2893 131.346 30.3473C131.396 30.4053 131.458 30.4517 131.528 30.4833C131.598 30.5148 131.674 30.5307 131.751 30.5298H135.636C135.774 30.531 135.906 30.4831 136.011 30.3949C136.116 30.3067 136.186 30.184 136.208 30.049L139.491 9.47184C139.503 9.39628 139.499 9.31895 139.478 9.24527C139.457 9.1716 139.42 9.10335 139.37 9.04533C139.32 8.98731 139.258 8.94091 139.188 8.90939C139.118 8.87787 139.042 8.86199 138.965 8.86286H135.08C134.942 8.86014 134.809 8.90744 134.704 8.99592C134.598 9.08439 134.529 9.20801 134.509 9.34367ZM130.36 15.3486H126.673C126.536 15.3472 126.403 15.3949 126.299 15.483C126.194 15.5711 126.125 15.6937 126.103 15.8286L125.981 16.5861C125.981 16.5861 123.118 13.489 118.048 15.582C115.14 16.7804 113.744 19.2563 113.15 21.0702C113.15 21.0702 111.264 26.5829 115.528 29.6171C115.528 29.6171 119.483 32.5355 123.935 29.4376L123.858 29.9208C123.84 30.0343 123.86 30.1506 123.915 30.2517C123.97 30.3528 124.056 30.4333 124.161 30.4808C124.231 30.5135 124.307 30.5298 124.384 30.5298H128.073C128.21 30.5325 128.344 30.4852 128.449 30.3967C128.554 30.3083 128.623 30.1846 128.644 30.049L130.888 15.9576C130.9 15.8821 130.896 15.8048 130.875 15.7312C130.854 15.6576 130.816 15.5897 130.766 15.5322C130.716 15.4737 130.653 15.4269 130.583 15.395C130.513 15.3631 130.437 15.347 130.36 15.3478V15.3486ZM124.935 23.1363C124.791 24.1209 124.292 25.0192 123.532 25.6629C122.768 26.3088 121.796 26.6576 120.794 26.6449C120.402 26.6495 120.011 26.5927 119.636 26.4767C118.044 25.9706 117.136 24.4571 117.397 22.8163C117.542 21.8323 118.041 20.9346 118.802 20.2914C119.565 19.6451 120.536 19.2952 121.537 19.3061C121.93 19.3021 122.321 19.3594 122.696 19.4759C124.298 19.9788 125.202 21.4947 124.939 23.1371H124.935V23.1363ZM105.249 23.5257C107.249 23.5257 109.182 22.8171 110.701 21.529C112.217 20.2452 113.22 18.4614 113.529 16.502C114.175 12.4261 110.96 8.86857 106.402 8.86857H99.0587C98.9216 8.86726 98.7887 8.91508 98.684 9.00332C98.5793 9.09157 98.5099 9.21437 98.4883 9.34939L95.2043 29.9265C95.1865 30.0401 95.2065 30.1563 95.2612 30.2574C95.3158 30.3585 95.4022 30.439 95.5071 30.4865C95.5775 30.5192 95.6528 30.5355 95.7297 30.5355H99.6176C99.7546 30.5368 99.8876 30.489 99.9923 30.4008C100.097 30.3125 100.166 30.1897 100.188 30.0547L101.152 24.0122C101.172 23.8764 101.241 23.7526 101.347 23.664C101.452 23.5753 101.586 23.5279 101.723 23.5306L105.249 23.5257ZM108.501 16.3167C108.262 17.8237 107.085 18.9331 104.834 18.9331H101.956L102.83 13.4531H105.656C107.983 13.4571 108.741 14.8163 108.501 16.3208V16.3167Z" fill="#0070E0"/>
<path d="M90.7749 15.698L86.3281 23.1306L84.0711 15.7527C84.0358 15.6349 83.9631 15.5318 83.8639 15.4589C83.7647 15.386 83.6444 15.3473 83.5212 15.3486H79.5081C79.4043 15.3472 79.3035 15.3832 79.2242 15.4502C79.145 15.5171 79.0926 15.6103 79.0769 15.7127C79.0671 15.7805 79.0741 15.8497 79.0973 15.9143L83.1415 28.342L79.4836 34.1984C79.4525 34.2466 79.4316 34.3006 79.4222 34.3571C79.4128 34.4137 79.4151 34.4715 79.4289 34.5272C79.4427 34.5828 79.4677 34.635 79.5024 34.6807C79.5372 34.7263 79.5809 34.7644 79.6309 34.7927C79.6978 34.831 79.7738 34.8507 79.851 34.8498H84.1734C84.2968 34.8502 84.4181 34.8189 84.5258 34.7588C84.6335 34.6988 84.7238 34.612 84.788 34.5069L96.0842 16.0033C96.1251 15.9388 96.1476 15.8645 96.1492 15.7882C96.1508 15.7119 96.1314 15.6367 96.0932 15.5706C96.0551 15.5043 95.9998 15.4494 95.9331 15.4117C95.8665 15.3739 95.7909 15.3547 95.7143 15.3559H91.3935C91.2696 15.3548 91.1475 15.3857 91.039 15.4456C90.9306 15.5056 90.8396 15.5925 90.7749 15.698ZM77.2331 15.3486H73.5433C73.406 15.3473 73.2729 15.3952 73.168 15.4836C73.0632 15.572 72.9937 15.695 72.9721 15.8302L72.8526 16.5869C72.8526 16.5869 69.9868 13.4898 64.9173 15.5829C62.0097 16.7812 60.6129 19.2571 60.0212 21.071C60.0212 21.071 58.1341 26.5837 62.3976 29.618C62.3976 29.618 66.3526 32.5363 70.8052 29.4384L70.7282 29.9216C70.7101 30.0352 70.73 30.1515 70.7847 30.2527C70.8394 30.3539 70.926 30.4343 71.031 30.4816C71.1006 30.5143 71.1767 30.5306 71.2536 30.5306H74.9426C75.0796 30.5316 75.2124 30.4836 75.317 30.3955C75.4216 30.3073 75.4911 30.1847 75.513 30.0498L77.7577 15.9584C77.776 15.8447 77.7562 15.7282 77.7015 15.6268C77.6468 15.5254 77.5601 15.4449 77.4549 15.3976C77.3851 15.3655 77.3092 15.3488 77.2323 15.3486H77.2331ZM71.8076 23.138C71.6624 24.1213 71.1632 25.0183 70.4034 25.6612C69.64 26.3071 68.6686 26.6567 67.6677 26.6457C67.2756 26.6501 66.8852 26.5933 66.5106 26.4776C64.9197 25.9714 64.0122 24.458 64.2732 22.8163C64.4187 21.8301 64.92 20.9308 65.6832 20.2873C66.4494 19.6411 67.4239 19.2929 68.4271 19.3069C68.8199 19.3029 69.2119 19.36 69.5867 19.4767C71.1718 19.9796 72.0744 21.4947 71.8125 23.138H71.8084H71.8076ZM52.1227 23.5265C54.1185 23.5255 56.049 22.8169 57.5695 21.5273C59.0838 20.2436 60.0861 18.4604 60.3944 16.502C61.0408 12.4269 57.8248 8.86939 53.2683 8.86939H45.9246C45.7876 8.86802 45.6546 8.91569 45.5498 9.00376C45.445 9.09183 45.3754 9.21445 45.3534 9.34939L42.0801 29.9208C42.0618 30.0345 42.0816 30.151 42.1363 30.2524C42.191 30.3537 42.2777 30.4343 42.3829 30.4816C42.4525 30.5135 42.5286 30.5306 42.6055 30.5306H46.4909C46.6282 30.5319 46.7614 30.484 46.8662 30.3956C46.971 30.3072 47.0406 30.1842 47.0621 30.049L48.0245 24.0065C48.0449 23.8709 48.1142 23.7473 48.2193 23.6588C48.3244 23.5703 48.4582 23.523 48.5957 23.5257H52.1227V23.5265ZM55.3747 16.3167C55.135 17.8237 53.959 18.9331 51.7078 18.9331H48.8297L49.7021 13.4531H52.5286C54.8567 13.4571 55.6137 14.8171 55.3747 16.3208V16.3167Z" fill="#003087"/>
<path d="M27.0039 9.92653C27.0914 5.38286 23.3345 1.89714 18.1684 1.89714H7.48261C7.23359 1.89703 6.99272 1.98562 6.80338 2.14695C6.61404 2.30829 6.48868 2.53177 6.44987 2.77714L2.16837 29.4653C2.14921 29.5862 2.15656 29.7099 2.1899 29.8277C2.22324 29.9456 2.28179 30.0548 2.3615 30.1479C2.44122 30.241 2.54022 30.3157 2.65168 30.367C2.76314 30.4183 2.88442 30.4449 3.00716 30.4449H9.33776L8.3484 36.6245C8.32924 36.7454 8.33659 36.8691 8.36993 36.9869C8.40327 37.1047 8.46182 37.214 8.54154 37.3071C8.62125 37.4002 8.72025 37.4749 8.83171 37.5262C8.94317 37.5775 9.06445 37.604 9.18719 37.6041H14.3443C14.5931 37.6041 14.8148 37.5151 15.0047 37.3543C15.1929 37.1926 15.224 36.9698 15.2633 36.7241L16.7772 27.8392C16.8157 27.5943 16.9409 27.2759 17.1299 27.1143C17.3189 26.9527 17.4842 26.8645 17.7338 26.8645H20.8893C25.9491 26.8645 30.2412 23.2767 31.026 18.2873C31.5816 14.7461 30.0595 11.5233 27.0039 9.92571V9.92653Z" fill="#001C64"/>
<path d="M10.7078 20.6025L9.13083 30.5763L8.14065 36.8327C8.12162 36.9536 8.12908 37.0772 8.16253 37.195C8.19598 37.3128 8.25462 37.422 8.33441 37.515C8.4142 37.608 8.51326 37.6827 8.62475 37.7339C8.73624 37.785 8.85753 37.8115 8.98026 37.8114H14.4385C14.6873 37.8113 14.9279 37.7226 15.1169 37.5613C15.3059 37.4 15.431 37.1766 15.4696 36.9314L16.9082 27.8384C16.947 27.5931 17.0723 27.3698 17.2614 27.2084C17.4506 27.0471 17.6913 26.9584 17.9402 26.9584H21.1529C26.2127 26.9584 30.5048 23.2767 31.2904 18.2873C31.8469 14.7461 30.0596 11.5233 27.004 9.92571C26.9958 10.3029 26.9631 10.6792 26.905 11.0522C26.1202 16.04 21.8264 19.7224 16.7683 19.7224H11.7397C11.4907 19.7227 11.25 19.8116 11.0609 19.973C10.8717 20.1345 10.7465 20.358 10.7078 20.6033" fill="#0070E0"/>
<path d="M9.12992 30.5763H2.77967C2.65696 30.5763 2.5357 30.5497 2.42428 30.4985C2.31285 30.4472 2.21389 30.3724 2.13424 30.2793C2.05458 30.1862 1.99612 30.0769 1.96288 29.9591C1.92964 29.8413 1.92241 29.7176 1.9417 29.5967L6.22321 2.51265C6.26199 2.26742 6.38723 2.04405 6.5764 1.88273C6.76557 1.72141 7.00625 1.63273 7.25512 1.63265H18.1684C23.3345 1.63265 27.0915 5.38286 27.0039 9.92571C25.7183 9.25306 24.2077 8.86857 22.553 8.86857H13.4548C13.2058 8.86845 12.9649 8.95704 12.7756 9.11838C12.5862 9.27972 12.4609 9.5032 12.4221 9.74857L10.7085 20.6024L9.1291 30.5763H9.12992Z" fill="#003087"/>
</svg>
