<svg width="84" height="40" viewBox="0 0 84 40" fill="none" xmlns="http://www.w3.org/2000/svg">
<path fill-rule="evenodd" clip-rule="evenodd" d="M74.2696 20.3865C74.2696 15.7843 72.0462 12.1528 67.7966 12.1528C63.5291 12.1528 60.947 15.7843 60.947 20.3506C60.947 25.7618 63.9953 28.4944 68.3704 28.4944C70.5041 28.4944 72.1179 28.009 73.3372 27.3258V23.7303C72.1179 24.3416 70.7193 24.7191 68.9441 24.7191C67.2049 24.7191 65.6628 24.1079 65.4656 21.9865H74.2337C74.2337 21.7528 74.2696 20.818 74.2696 20.3865ZM65.4118 18.6787C65.4118 16.6472 66.649 15.8022 67.7786 15.8022C68.8724 15.8022 70.0379 16.6472 70.0379 18.6787H65.4118Z" fill="#635BFF"/>
<path fill-rule="evenodd" clip-rule="evenodd" d="M54.0258 12.1528C52.2686 12.1528 51.1389 12.9798 50.5114 13.5551L50.2783 12.4404H46.3335V33.4022L50.8162 32.4494L50.8341 27.3618C51.4796 27.8292 52.43 28.4944 54.0079 28.4944C57.2175 28.4944 60.1402 25.9056 60.1402 20.2067C60.1223 14.9933 57.1637 12.1528 54.0258 12.1528ZM52.95 24.5393C51.892 24.5393 51.2645 24.1618 50.8341 23.6944L50.8162 17.0247C51.2824 16.5034 51.9279 16.1438 52.95 16.1438C54.5817 16.1438 55.7113 17.9775 55.7113 20.3326C55.7113 22.7416 54.5996 24.5393 52.95 24.5393Z" fill="#635BFF"/>
<path fill-rule="evenodd" clip-rule="evenodd" d="M40.1653 11.0921L44.6659 10.1213V6.47191L40.1653 7.42472V11.0921Z" fill="#635BFF"/>
<path d="M44.6659 12.4584H40.1653V28.1888H44.6659V12.4584Z" fill="#635BFF"/>
<path fill-rule="evenodd" clip-rule="evenodd" d="M35.3418 13.7888L35.0549 12.4584H31.1819V28.1888H35.6646V17.5281C36.7225 16.1438 38.5156 16.3955 39.0714 16.5933V12.4584C38.4976 12.2427 36.3997 11.8472 35.3418 13.7888Z" fill="#635BFF"/>
<path fill-rule="evenodd" clip-rule="evenodd" d="M26.3764 8.5573L22.0013 9.49214L21.9834 23.8921C21.9834 26.5528 23.9737 28.5124 26.6275 28.5124C28.0978 28.5124 29.1736 28.2427 29.7654 27.9191V24.2697C29.1916 24.5034 26.3585 25.3303 26.3585 22.6697V16.2876H29.7654V12.4584H26.3585L26.3764 8.5573Z" fill="#635BFF"/>
<path fill-rule="evenodd" clip-rule="evenodd" d="M14.2552 17.0247C14.2552 16.3236 14.829 16.0539 15.7794 16.0539C17.1421 16.0539 18.8635 16.4674 20.2262 17.2045V12.9798C18.7379 12.3865 17.2676 12.1528 15.7794 12.1528C12.1394 12.1528 9.71875 14.0584 9.71875 17.2405C9.71875 22.2022 16.5324 21.4112 16.5324 23.5506C16.5324 24.3775 15.8152 24.6472 14.8111 24.6472C13.3228 24.6472 11.4222 24.036 9.91599 23.209V27.4876C11.5836 28.2067 13.269 28.5124 14.8111 28.5124C18.5407 28.5124 21.1048 26.6607 21.1048 23.4427C21.0869 18.0854 14.2552 19.0382 14.2552 17.0247Z" fill="#635BFF"/>
</svg>
