<svg width="99" height="32" viewBox="0 0 99 32" fill="none" xmlns="http://www.w3.org/2000/svg">
<g clip-path="url(#clip0_130_111)">
<path d="M64.1168 0.0492792C57.1326 0.0492792 50.8913 3.67283 50.8913 10.3676C50.8913 18.0453 61.9606 18.5756 61.9606 22.4326C61.9606 24.0566 60.1012 25.5104 56.9256 25.5104C52.4187 25.5104 49.0502 23.4791 49.0502 23.4791L47.6089 30.2348C47.6089 30.2348 51.4893 31.9507 56.6411 31.9507C64.2771 31.9507 70.2856 28.1493 70.2856 21.34C70.2856 13.2272 59.1702 12.7126 59.1702 9.13265C59.1702 7.86045 60.6965 6.4665 63.8631 6.4665C67.436 6.4665 70.3509 7.94385 70.3509 7.94385L71.7615 1.4189C71.7615 1.4189 68.5898 0.0492792 64.1168 0.0492792ZM0.218431 0.541729L0.0493164 1.52663C0.0493164 1.52663 2.98757 2.0649 5.63394 3.13863C9.04136 4.36987 9.28409 5.08664 9.85795 7.3129L16.1113 31.4429H24.494L37.4082 0.541729H29.0447L20.7466 21.5516L17.3605 3.74265C17.0499 1.70443 15.477 0.541729 13.5516 0.541729H0.218431ZM40.7713 0.541729L34.2104 31.4429H42.1857L48.7235 0.541729H40.7713ZM85.2522 0.541729C83.3291 0.541729 82.3102 1.57234 81.5625 3.37331L69.8782 31.4429H78.2417L79.8598 26.7646H90.0489L91.0329 31.4429H98.4124L91.9745 0.541729H85.2522ZM86.3399 8.89027L88.819 20.4859H82.1774L86.3399 8.89027Z" fill="#1434CB"/>
</g>
<defs>
<clipPath id="clip0_130_111">
<rect width="98.4615" height="32" fill="white"/>
</clipPath>
</defs>
</svg>
